<svg
      xmlns="http://www.w3.org/2000/svg"
      width="81"
      height="48"
      viewBox="0 0 81 48"
      fill="none"
    >
      <g clip-path="url(#clip0_1193_5252)">
        <path
          d="M12.2274 0.089344C9.07859 0.434025 6.22378 1.78722 4.02515 3.97871C1.87765 6.11913 0.565288 8.78722 0.139196 11.8936C0.0667609 12.4128 0.0625 13.1319 0.0625 23.9787C0.0625 34.9021 0.0667609 35.5404 0.139196 36.0851C0.48433 38.617 1.41321 40.8553 2.92583 42.7872C4.68559 45.0298 7.22084 46.7191 9.95208 47.4681C11.3198 47.8425 12.4319 47.9787 13.8892 47.9447C15.5296 47.9064 16.8249 47.6638 18.3418 47.1021C18.9597 46.8766 20.2294 46.2468 20.7918 45.8936C23.3782 44.2596 25.3553 41.783 26.3481 38.9404C27.098 36.783 27.3068 34.6085 26.9659 32.3957C26.625 30.1574 25.7302 28.0553 24.3284 26.2127C23.962 25.7319 22.7902 24.4979 22.3556 24.1319L22.1894 23.9957L22.3982 23.817C23.9023 22.5276 25.2317 20.7276 25.9902 18.9659C27.3409 15.8127 27.49 12.4383 26.412 9.23402C25.726 7.18296 24.6096 5.417 23.0246 3.86807C20.9708 1.86807 18.4398 0.612747 15.5296 0.161682C15.095 0.0935974 14.7158 0.0723228 13.7826 0.0638123C13.1265 0.0553017 12.4277 0.0680656 12.2274 0.089344ZM14.2513 6.21275C16.8122 6.4553 19.0236 7.96594 20.174 10.2553C22.0105 13.9149 20.5064 18.3617 16.8164 20.1659C15.7341 20.6979 14.5794 20.9362 13.0796 20.9362C11.8993 20.9362 10.1651 21.2808 8.79737 21.7915C8.20085 22.0127 7.16544 22.5106 6.65413 22.8213C6.43683 22.9532 6.24935 23.0638 6.23656 23.0638C6.22378 23.0638 6.22378 20.6936 6.2323 17.7957L6.24509 12.5319L6.33883 12.1106C6.70527 10.5149 7.42962 9.217 8.5332 8.19147C10.097 6.7319 12.1678 6.017 14.2513 6.21275ZM14.2513 27.1064C17.7623 27.4383 20.5319 30.1617 20.9154 33.6681C21.3713 37.7915 18.2651 41.4893 14.1065 41.783C12.7899 41.8766 11.5371 41.634 10.3739 41.0681C8.26902 40.034 6.84161 38.1957 6.34309 35.8723C6.25787 35.4808 6.24509 35.3021 6.24509 34.4468C6.24509 33.583 6.25361 33.417 6.33883 33.0213C6.64561 31.6298 7.25066 30.4425 8.1625 29.4553C9.72199 27.7659 11.9803 26.8936 14.2513 27.1064Z"
          fill="#0F578D"
        />
        <path
          d="M12.7596 7.47228C10.9444 7.74462 9.45738 8.67228 8.47311 10.1404C8.05128 10.7702 7.7658 11.4468 7.57406 12.268C7.48032 12.6553 7.48032 12.7276 7.46754 16.9872C7.45901 19.3702 7.46327 21.3191 7.4718 21.3191C7.48458 21.3191 7.62093 21.2425 7.77432 21.1489C9.30825 20.2085 11.4643 19.5744 13.1218 19.5744C14.4128 19.5744 15.3971 19.3531 16.3558 18.851C17.9707 17.9999 19.0785 16.5148 19.4791 14.6638C19.6111 14.0468 19.6111 12.9319 19.4791 12.3106C18.9592 9.90207 17.1696 8.09356 14.7622 7.55313C14.4682 7.48505 13.0451 7.42973 12.7596 7.47228ZM14.5534 8.02122C16.8586 8.45952 18.661 10.3233 19.0274 12.6382C19.1339 13.3191 19.0956 14.2085 18.9251 14.8638C18.3883 16.9361 16.7095 18.5233 14.5918 18.9574C14.3958 18.9999 13.8632 19.0425 13.3348 19.0638C12.832 19.085 12.2185 19.1319 11.9713 19.1659C10.6547 19.3531 9.47443 19.7148 8.39215 20.2553L7.96606 20.468V16.7063C7.96606 12.6425 7.96606 12.617 8.20041 11.851C8.3325 11.4085 8.7032 10.6595 8.99294 10.2553C9.44886 9.60845 10.301 8.88079 11.0339 8.51058C11.5623 8.24249 12.423 7.99994 13.0366 7.94037C13.3689 7.91058 14.1998 7.95313 14.5534 8.02122Z"
          fill="#10994D"
        />
        <path
          d="M9.80269 12.3191C9.24025 12.4766 8.86103 12.9191 8.79285 13.4936C8.72042 14.1149 9.16781 14.7787 9.77712 14.9404C10.0328 15.0128 10.51 14.9659 10.7358 14.8553C10.9957 14.7234 11.2301 14.4936 11.3664 14.234C11.4644 14.0511 11.4815 13.9702 11.4815 13.6383C11.4815 13.3234 11.4602 13.2213 11.3792 13.0553C11.0895 12.4638 10.4163 12.1532 9.80269 12.3191Z"
          fill="#10994D"
        />
        <path
          d="M13.3312 12.3106C12.9222 12.4255 12.6282 12.6638 12.4279 13.0383C12.2916 13.2979 12.2916 13.9362 12.4322 14.2213C12.56 14.4766 12.8157 14.7319 13.0713 14.8596C13.361 15 13.8297 15.017 14.1536 14.8936C14.9078 14.6127 15.2359 13.6979 14.8438 12.9745C14.5584 12.4553 13.8809 12.1574 13.3312 12.3106Z"
          fill="#10994D"
        />
        <path
          d="M16.6623 12.3191C16.5344 12.3574 16.3683 12.4255 16.2916 12.4723C16.07 12.6085 15.8186 12.9234 15.7334 13.1617C15.4905 13.8681 15.8399 14.6425 16.5174 14.8936C16.9946 15.0723 17.5315 14.9744 17.9022 14.6425C18.4519 14.1532 18.52 13.3447 18.0641 12.7702C17.7531 12.3787 17.1523 12.1872 16.6623 12.3191Z"
          fill="#10994D"
        />
        <path
          d="M32.6367 16.485C32.6367 16.7914 32.641 16.8084 32.7347 16.8084C32.7859 16.8084 33.2588 16.8467 33.7872 16.8935C34.3155 16.9404 34.78 16.9787 34.8226 16.9787C34.8907 16.9787 34.895 17.3191 34.895 23.5701V30.1574L34.7373 30.1829C34.6479 30.1957 34.1408 30.2382 33.6082 30.2808L32.6367 30.3574V30.6723V30.9829L36.0369 30.9659C39.0196 30.9531 39.4883 30.9446 39.8718 30.8765C42.1982 30.485 43.5319 29.2978 43.7662 27.417C43.8557 26.685 43.681 25.7999 43.3274 25.2042C43.1399 24.8893 42.6967 24.4212 42.3686 24.1872C41.8105 23.7872 40.9924 23.4765 40.0933 23.3233C39.8462 23.2808 39.6757 23.234 39.7098 23.2212C39.7439 23.2084 39.9271 23.1531 40.1146 23.1021C41.4057 22.7531 42.3942 21.9616 42.799 20.9489C43.2762 19.7574 43.012 18.2978 42.1641 17.4382C41.5804 16.851 40.839 16.4978 39.7311 16.2893C39.288 16.2042 39.0877 16.1999 35.9517 16.1829L32.6367 16.1659V16.485ZM39.1346 16.9574C40.6472 17.1872 41.4866 17.7999 41.7806 18.8935C41.8829 19.2723 41.8829 20.1701 41.7849 20.5531C41.5633 21.3999 41.0478 22.034 40.2595 22.4212C39.467 22.8127 38.8577 22.9233 37.2385 22.9659L36.1307 22.9914V19.9446V16.8935H37.4217C38.3506 16.8935 38.8278 16.9106 39.1346 16.9574ZM39.2411 23.7233C41.3034 24.0382 42.3303 24.9191 42.522 26.5276C42.6073 27.2425 42.4922 27.9531 42.1939 28.5233C41.9639 28.9744 41.4653 29.4553 40.9668 29.7106C40.0678 30.1701 39.467 30.268 37.5581 30.2723L36.152 30.2765L36.1392 26.9404L36.1307 23.6042L37.4601 23.6297C38.3634 23.6467 38.9386 23.6765 39.2411 23.7233Z"
          fill="#0F578D"
        />
        <path
          d="M50.1327 20.3873C49.4978 20.4809 48.7436 20.7745 48.1854 21.149C47.8275 21.3915 47.1926 22.0298 46.9455 22.4043C46.4896 23.0937 46.1998 23.8383 46.0507 24.7022C45.9357 25.3788 45.957 26.6851 46.0976 27.3277C46.6344 29.7958 48.3729 31.2511 50.7888 31.2511C51.6708 31.2511 52.3952 31.0766 53.0855 30.6979C53.6479 30.3915 54.2487 29.8639 54.5768 29.3873L54.7089 29.2L54.5384 29.0468L54.3723 28.8979L54.1081 29.1532C53.3582 29.8639 52.5145 30.2468 51.4919 30.3362C50.3116 30.4383 49.2762 30.1192 48.5305 29.4171C48.13 29.0426 47.9553 28.8128 47.721 28.3575C47.4014 27.7319 47.2097 26.9745 47.1415 26.0468L47.1159 25.6468L50.8655 25.6724L54.6194 25.7022L54.6705 25.5447C54.6961 25.4554 54.7259 25.0554 54.7387 24.6596C54.7557 24.0894 54.7472 23.8554 54.6918 23.5575C54.4064 22.0554 53.4732 20.9745 52.0884 20.5405C51.4876 20.3532 50.759 20.2979 50.1327 20.3873ZM51.4493 21.0851C51.5899 21.1192 51.8668 21.2298 52.0671 21.3277C52.3569 21.4639 52.4975 21.5702 52.7702 21.8468C53.3667 22.4468 53.6479 23.1362 53.6564 24.0213C53.665 24.5617 53.5968 24.7617 53.3496 24.9234L53.2048 25.0213H50.188H47.1671V24.8894C47.1671 24.6766 47.329 23.9447 47.4483 23.6085C47.7721 22.7064 48.2962 22.0043 48.9737 21.5575C49.37 21.2937 49.5404 21.2171 49.958 21.1064C50.3372 21.0043 51.0914 20.9958 51.4493 21.0851Z"
          fill="#0F578D"
        />
        <path
          d="M61.0056 20.4085C59.2672 20.6765 57.8738 21.8638 57.2688 23.5872C57.0003 24.3574 56.9492 24.7191 56.9492 25.851C56.9492 26.7446 56.9577 26.9234 57.0387 27.2851C57.4179 28.9744 58.2914 30.1404 59.6592 30.7872C60.9033 31.3744 62.2967 31.4127 63.6346 30.8978C64.6189 30.5191 65.5137 29.6851 66.0207 28.6808C66.9283 26.8808 66.8218 24.217 65.7736 22.5446C64.7765 20.9489 62.906 20.1106 61.0056 20.4085ZM62.5566 21.0851C62.9699 21.1702 63.6516 21.5106 63.9669 21.7914C64.6061 22.3574 65.0407 23.1872 65.2793 24.2893C65.4071 24.8851 65.4412 26.3021 65.3432 26.9659C65.1685 28.1617 64.8362 28.9234 64.2141 29.5829C63.8817 29.9361 63.5281 30.1829 63.119 30.3531C62.6801 30.5361 62.4373 30.5744 61.7598 30.5744C61.2187 30.5744 61.0695 30.5574 60.7798 30.4765C59.6634 30.1531 58.8453 29.3106 58.4448 28.0638C57.9335 26.4851 58.0528 24.2425 58.7175 22.9276C59.2245 21.9191 60.0512 21.2638 61.061 21.068C61.372 21.0042 62.22 21.017 62.5566 21.0851Z"
          fill="#0F578D"
        />
        <path
          d="M75.1053 20.4085C74.0529 20.6 73.0089 21.1873 72.0204 22.149C71.7775 22.383 71.5815 22.566 71.5773 22.5532C71.5773 22.5405 71.5517 22.0937 71.5219 21.5575C71.4665 20.6128 71.4622 20.583 71.3642 20.5064C71.3088 20.4639 71.2321 20.4256 71.198 20.4256C71.1469 20.4256 69.5192 20.8383 68.6969 21.0596L68.5137 21.1107V21.383V21.6554L68.7395 21.6766C68.8588 21.6894 69.2977 21.7107 69.711 21.7277L70.4652 21.7532L70.495 23.0383C70.5291 24.366 70.5078 30.149 70.4737 30.183C70.4609 30.1958 70.0433 30.2511 69.5491 30.3022L68.6415 30.4V30.6894V30.9788H70.985H73.3285V30.6894V30.4043L72.5104 30.3064C72.0588 30.2511 71.6753 30.1958 71.6582 30.1788C71.6412 30.1617 71.6156 28.6171 71.5986 26.7447L71.5687 23.3405L71.9735 22.9575C72.8342 22.149 73.712 21.6298 74.5855 21.4213C75.0116 21.3192 75.7487 21.3192 76.0683 21.4213C76.733 21.6383 77.1207 22.1447 77.3252 23.0639C77.3892 23.349 77.3977 23.749 77.3977 26.7745C77.3977 28.6383 77.3892 30.1745 77.3764 30.183C77.3636 30.1958 76.946 30.2511 76.4518 30.3022L75.5442 30.4V30.6894V30.9788H77.8877H80.2312V30.6894V30.4043L79.4131 30.3064C78.9614 30.2511 78.578 30.1958 78.5609 30.1788C78.5439 30.1617 78.5183 28.6341 78.5055 26.7873C78.4757 23.1617 78.4586 22.8426 78.2413 22.1532C78.0879 21.6596 77.8792 21.2809 77.5979 21.0043C77.0355 20.4426 76.1237 20.2256 75.1053 20.4085Z"
          fill="#0F578D"
        />
      </g>
      <defs>
        <clipPath id="clip0_1193_5252">
          <rect width="81" height="48" fill="white" />
        </clipPath>
      </defs>
    </svg>
