<svg xmlns="http://www.w3.org/2000/svg" width="81" height="48" viewBox="0 0 81 48" fill="none">
<g clip-path="url(#clip0_1193_5546)">
<path d="M12.2274 0.0888557C9.07859 0.433537 6.22378 1.78673 4.02515 3.97822C1.87765 6.11864 0.565288 8.78673 0.139196 11.8931C0.0667609 12.4123 0.0625 13.1314 0.0625 23.9782C0.0625 34.9016 0.0667609 35.5399 0.139196 36.0846C0.48433 38.6165 1.41321 40.8548 2.92583 42.7867C4.68559 45.0293 7.22084 46.7186 9.95208 47.4676C11.3198 47.8421 12.4319 47.9782 13.8892 47.9442C15.5296 47.9059 16.8249 47.6633 18.3418 47.1016C18.9597 46.8761 20.2294 46.2463 20.7918 45.8931C23.3782 44.2591 25.3553 41.7825 26.3481 38.9399C27.098 36.7825 27.3068 34.608 26.9659 32.3952C26.625 30.1569 25.7302 28.0548 24.3284 26.2123C23.962 25.7314 22.7902 24.4974 22.3556 24.1314L22.1894 23.9952L22.3982 23.8165C23.9023 22.5272 25.2317 20.7272 25.9902 18.9655C27.3409 15.8123 27.49 12.4378 26.412 9.23354C25.726 7.18247 24.6096 5.41652 23.0246 3.86758C20.9708 1.86758 18.4398 0.612259 15.5296 0.161194C15.095 0.0931091 14.7158 0.0718346 13.7826 0.063324C13.1265 0.0548134 12.4277 0.0675774 12.2274 0.0888557ZM14.2513 6.21226C16.8122 6.45481 19.0236 7.96545 20.174 10.2548C22.0105 13.9144 20.5064 18.3612 16.8164 20.1655C15.7341 20.6974 14.5794 20.9357 13.0796 20.9357C11.8993 20.9357 10.1651 21.2803 8.79737 21.791C8.20085 22.0123 7.16544 22.5101 6.65413 22.8208C6.43683 22.9527 6.24935 23.0633 6.23656 23.0633C6.22378 23.0633 6.22378 20.6931 6.2323 17.7952L6.24509 12.5314L6.33883 12.1101C6.70527 10.5144 7.42962 9.21651 8.5332 8.19098C10.097 6.73141 12.1678 6.01651 14.2513 6.21226ZM14.2513 27.1059C17.7623 27.4378 20.5319 30.1612 20.9154 33.6676C21.3713 37.791 18.2651 41.4889 14.1065 41.7825C12.7899 41.8761 11.5371 41.6335 10.3739 41.0676C8.26902 40.0335 6.84161 38.1952 6.34309 35.8718C6.25787 35.4803 6.24509 35.3016 6.24509 34.4463C6.24509 33.5825 6.25361 33.4165 6.33883 33.0208C6.64561 31.6293 7.25066 30.442 8.1625 29.4548C9.72199 27.7655 11.9803 26.8931 14.2513 27.1059Z" fill="white"/>
<path d="M12.7596 7.47155C10.9444 7.74389 9.45738 8.67155 8.47311 10.1396C8.05128 10.7694 7.7658 11.446 7.57406 12.2673C7.48032 12.6545 7.48032 12.7269 7.46754 16.9864C7.45901 19.3694 7.46327 21.3184 7.4718 21.3184C7.48458 21.3184 7.62093 21.2418 7.77432 21.1481C9.30825 20.2077 11.4643 19.5737 13.1218 19.5737C14.4128 19.5737 15.3971 19.3524 16.3558 18.8503C17.9707 17.9992 19.0785 16.5141 19.4791 14.663C19.6111 14.046 19.6111 12.9311 19.4791 12.3098C18.9592 9.90134 17.1696 8.09283 14.7622 7.5524C14.4682 7.48432 13.0451 7.429 12.7596 7.47155ZM14.5534 8.02049C16.8586 8.45878 18.661 10.3226 19.0274 12.6375C19.1339 13.3184 19.0956 14.2077 18.9251 14.863C18.3883 16.9354 16.7095 18.5226 14.5918 18.9567C14.3958 18.9992 13.8632 19.0418 13.3348 19.063C12.832 19.0843 12.2185 19.1311 11.9713 19.1652C10.6547 19.3524 9.47443 19.7141 8.39215 20.2545L7.96606 20.4673V16.7056C7.96606 12.6418 7.96606 12.6162 8.20041 11.8503C8.3325 11.4077 8.7032 10.6588 8.99294 10.2545C9.44886 9.60772 10.301 8.88006 11.0339 8.50985C11.5623 8.24176 12.423 7.99921 13.0366 7.93964C13.3689 7.90985 14.1998 7.9524 14.5534 8.02049Z" fill="white"/>
<path d="M9.80269 12.3187C9.24025 12.4761 8.86103 12.9187 8.79285 13.4931C8.72042 14.1144 9.16781 14.7782 9.77712 14.9399C10.0328 15.0123 10.51 14.9655 10.7358 14.8548C10.9957 14.7229 11.2301 14.4931 11.3664 14.2335C11.4644 14.0506 11.4815 13.9697 11.4815 13.6378C11.4815 13.3229 11.4602 13.2208 11.3792 13.0548C11.0895 12.4633 10.4163 12.1527 9.80269 12.3187Z" fill="white"/>
<path d="M13.3312 12.3098C12.9222 12.4247 12.6282 12.663 12.4279 13.0374C12.2916 13.297 12.2916 13.9353 12.4322 14.2204C12.56 14.4757 12.8157 14.731 13.0713 14.8587C13.361 14.9991 13.8297 15.0162 14.1536 14.8927C14.9078 14.6119 15.2359 13.697 14.8438 12.9736C14.5584 12.4544 13.8809 12.1566 13.3312 12.3098Z" fill="white"/>
<path d="M16.6623 12.3189C16.5344 12.3572 16.3683 12.4253 16.2916 12.4721C16.07 12.6082 15.8186 12.9231 15.7334 13.1614C15.4905 13.8678 15.8399 14.6423 16.5174 14.8933C16.9946 15.0721 17.5315 14.9742 17.9022 14.6423C18.4519 14.1529 18.52 13.3444 18.0641 12.7699C17.7531 12.3784 17.1523 12.187 16.6623 12.3189Z" fill="white"/>
<path d="M32.6367 16.4845C32.6367 16.7909 32.641 16.808 32.7347 16.808C32.7859 16.808 33.2588 16.8463 33.7872 16.8931C34.3155 16.9399 34.78 16.9782 34.8226 16.9782C34.8907 16.9782 34.895 17.3186 34.895 23.5697V30.1569L34.7373 30.1824C34.6479 30.1952 34.1408 30.2377 33.6082 30.2803L32.6367 30.3569V30.6718V30.9824L36.0369 30.9654C39.0196 30.9526 39.4883 30.9441 39.8718 30.876C42.1982 30.4845 43.5319 29.2973 43.7662 27.4165C43.8557 26.6845 43.681 25.7994 43.3274 25.2037C43.1399 24.8888 42.6967 24.4207 42.3686 24.1867C41.8105 23.7867 40.9924 23.476 40.0933 23.3228C39.8462 23.2803 39.6757 23.2335 39.7098 23.2207C39.7439 23.208 39.9271 23.1526 40.1146 23.1016C41.4057 22.7526 42.3942 21.9611 42.799 20.9484C43.2762 19.7569 43.012 18.2973 42.1641 17.4377C41.5804 16.8505 40.839 16.4973 39.7311 16.2888C39.288 16.2037 39.0877 16.1994 35.9517 16.1824L32.6367 16.1654V16.4845ZM39.1346 16.9569C40.6472 17.1867 41.4866 17.7994 41.7806 18.8931C41.8829 19.2718 41.8829 20.1697 41.7849 20.5526C41.5633 21.3994 41.0478 22.0335 40.2595 22.4207C39.467 22.8122 38.8577 22.9228 37.2385 22.9654L36.1307 22.9909V19.9441V16.8931H37.4217C38.3506 16.8931 38.8278 16.9101 39.1346 16.9569ZM39.2411 23.7228C41.3034 24.0377 42.3303 24.9186 42.522 26.5271C42.6073 27.242 42.4922 27.9526 42.1939 28.5228C41.9639 28.9739 41.4653 29.4548 40.9668 29.7101C40.0678 30.1697 39.467 30.2675 37.5581 30.2718L36.152 30.276L36.1392 26.9399L36.1307 23.6037L37.4601 23.6292C38.3634 23.6463 38.9386 23.676 39.2411 23.7228Z" fill="white"/>
<path d="M50.1327 20.3871C49.4978 20.4808 48.7436 20.7744 48.1854 21.1488C47.8275 21.3914 47.1926 22.0297 46.9455 22.4042C46.4896 23.0935 46.1998 23.8382 46.0507 24.702C45.9357 25.3786 45.957 26.685 46.0976 27.3276C46.6344 29.7957 48.3729 31.251 50.7888 31.251C51.6708 31.251 52.3952 31.0765 53.0855 30.6978C53.6479 30.3914 54.2487 29.8637 54.5768 29.3871L54.7089 29.1999L54.5384 29.0467L54.3723 28.8978L54.1081 29.1531C53.3582 29.8637 52.5145 30.2467 51.4919 30.3361C50.3116 30.4382 49.2762 30.1191 48.5305 29.4169C48.13 29.0425 47.9553 28.8127 47.721 28.3574C47.4014 27.7318 47.2097 26.9744 47.1415 26.0467L47.1159 25.6467L50.8655 25.6723L54.6194 25.702L54.6705 25.5446C54.6961 25.4552 54.7259 25.0552 54.7387 24.6595C54.7557 24.0893 54.7472 23.8552 54.6918 23.5574C54.4064 22.0552 53.4732 20.9744 52.0884 20.5403C51.4876 20.3531 50.759 20.2978 50.1327 20.3871ZM51.4493 21.085C51.5899 21.1191 51.8668 21.2297 52.0671 21.3276C52.3569 21.4637 52.4975 21.5701 52.7702 21.8467C53.3667 22.4467 53.6479 23.1361 53.6564 24.0212C53.665 24.5616 53.5968 24.7616 53.3496 24.9233L53.2048 25.0212H50.188H47.1671V24.8893C47.1671 24.6765 47.329 23.9446 47.4483 23.6084C47.7721 22.7063 48.2962 22.0042 48.9737 21.5574C49.37 21.2935 49.5404 21.2169 49.958 21.1063C50.3372 21.0042 51.0914 20.9957 51.4493 21.085Z" fill="white"/>
<path d="M61.0056 20.4076C59.2672 20.6757 57.8738 21.8629 57.2688 23.5863C57.0003 24.3565 56.9492 24.7182 56.9492 25.8502C56.9492 26.7438 56.9577 26.9225 57.0387 27.2842C57.4179 28.9736 58.2914 30.1395 59.6592 30.7863C60.9033 31.3736 62.2967 31.4119 63.6346 30.897C64.6189 30.5182 65.5137 29.6842 66.0207 28.6799C66.9283 26.88 66.8218 24.2161 65.7736 22.5438C64.7765 20.948 62.906 20.1097 61.0056 20.4076ZM62.5566 21.0842C62.9699 21.1693 63.6516 21.5097 63.9669 21.7906C64.6061 22.3565 65.0407 23.1863 65.2793 24.2885C65.4071 24.8842 65.4412 26.3012 65.3432 26.9651C65.1685 28.1608 64.8362 28.9225 64.2141 29.5821C63.8817 29.9353 63.5281 30.1821 63.119 30.3523C62.6801 30.5353 62.4373 30.5736 61.7598 30.5736C61.2187 30.5736 61.0695 30.5565 60.7798 30.4757C59.6634 30.1523 58.8453 29.3097 58.4448 28.0629C57.9335 26.4842 58.0528 24.2417 58.7175 22.9268C59.2245 21.9182 60.0512 21.2629 61.061 21.0672C61.372 21.0034 62.22 21.0161 62.5566 21.0842Z" fill="white"/>
<path d="M75.1053 20.4083C74.0529 20.5998 73.0089 21.187 72.0204 22.1487C71.7775 22.3828 71.5815 22.5657 71.5773 22.553C71.5773 22.5402 71.5517 22.0934 71.5219 21.5572C71.4665 20.6126 71.4622 20.5828 71.3642 20.5062C71.3088 20.4636 71.2321 20.4253 71.198 20.4253C71.1469 20.4253 69.5192 20.8381 68.6969 21.0594L68.5137 21.1104V21.3828V21.6551L68.7395 21.6764C68.8588 21.6892 69.2977 21.7104 69.711 21.7274L70.4652 21.753L70.495 23.0381C70.5291 24.3657 70.5078 30.1487 70.4737 30.1828C70.4609 30.1955 70.0433 30.2509 69.5491 30.3019L68.6415 30.3998V30.6892V30.9785H70.985H73.3285V30.6892V30.404L72.5104 30.3062C72.0588 30.2509 71.6753 30.1955 71.6582 30.1785C71.6412 30.1615 71.6156 28.6168 71.5986 26.7445L71.5687 23.3402L71.9735 22.9572C72.8342 22.1487 73.712 21.6296 74.5855 21.4211C75.0116 21.3189 75.7487 21.3189 76.0683 21.4211C76.733 21.6381 77.1207 22.1445 77.3252 23.0636C77.3892 23.3487 77.3977 23.7487 77.3977 26.7743C77.3977 28.6381 77.3892 30.1743 77.3764 30.1828C77.3636 30.1955 76.946 30.2509 76.4518 30.3019L75.5442 30.3998V30.6892V30.9785H77.8877H80.2312V30.6892V30.404L79.4131 30.3062C78.9614 30.2509 78.578 30.1955 78.5609 30.1785C78.5439 30.1615 78.5183 28.6338 78.5055 26.787C78.4757 23.1615 78.4586 22.8423 78.2413 22.153C78.0879 21.6594 77.8792 21.2806 77.5979 21.004C77.0355 20.4423 76.1237 20.2253 75.1053 20.4083Z" fill="white"/>
</g>
<defs>
<clipPath id="clip0_1193_5546">
<rect width="81" height="48" fill="white"/>
</clipPath>
</defs>
<script xmlns=""/></svg>
